{"title":"Krugovi [Circles] 2013 DVDRip XviD titler","uid":9298834,"size":1438832147,"categoryP":"video","categoryS":"movies","magnet":"?xt=urn:btih:2e3de2172fbd969b3bf862579226c460d0ce11b6&amp;dn=Krugovi+%5BCircles%5D+2013+DVDRip+XviD+titler&amp;tr=udp%3A%2F%2Ftracker.openbittorrent.com%3A80&amp;tr=udp%3A%2F%2Fopen.demonii.com%3A1337&amp;tr=udp%3A%2F%2Ftracker.coppersurfer.tk%3A6969&amp;tr=udp%3A%2F%2Fexodus.desync.com%3A6969","seeders":9,"leechers":3,"uploader":"movieZ.freak","files":4,"time":1386210677,"description":" &lt;a href=&quot;\nhttp://www.imdb.com/title/tt1839522/&quot; rel=&quot;nofollow&quot; target=&quot;_NEW&quot;&gt;\nhttp://www.imdb.com/title/tt1839522/&lt;/a&gt;\n\n\n &lt;a href=&quot;\nhttp://www.rottentomatoes.com/m/krugovi/&quot; rel=&quot;nofollow&quot; target=&quot;_NEW&quot;&gt;\nhttp://www.rottentomatoes.com/m/krugovi/&lt;/a&gt;\n\n\n &lt;a href=&quot;\nhttp://en.wikipedia.org/wiki/Circles_%28film%29&quot; rel=&quot;nofollow&quot; target=&quot;_NEW&quot;&gt;\nhttp://en.wikipedia.org/wiki/Circles_%28film%29&lt;/a&gt;\n\n\n\nBased on actual events\n------------------------------- &lt;a href=&quot;\nhttp://en.wikipedia.org/wiki/Sr%C4%91an_Aleksi%C4%87&quot; rel=&quot;nofollow&quot; target=&quot;_NEW&quot;&gt;\nhttp://en.wikipedia.org/wiki/Sr%C4%91an_Aleksi%C4%87&lt;/a&gt;\n\n\n\n- SAMPLE: Yes\n\n\n- SUBTITLE: English\n\n\n- LANGUAGE: Serbo-Croatian, German\n\n\n\nSCREENSHOTS:\n-------------------- &lt;a href=&quot;\nhttp://someimage.com/0jfr&quot; rel=&quot;nofollow&quot; target=&quot;_NEW&quot;&gt;\nhttp://someimage.com/0jfr&lt;/a&gt;\n\n\n\nNOTE:\n---------\nThe film has been selected as the Serbian entry for the Best Foreign Language Film at the 86th Academy Awards.\n\n\n\nDIRECTOR: Srdan Golubovic\n\n\n\nCAST: Aleksandar Bercek, Leon Lucev, Nebojsa Glogovac, Nikola Rakocevic, Hristina Popovic, Boris Isakovic, Dejan Cukic, Vuk Kostic,...\n\n\nPLOT:\n-----------\nOne fateful act of violence creates a series of tragic ripples in this three-part drama from acclaimed filmmaker Srdan Golubovic (The Trap). The story begins as a Serbian soldier named Marco arrives in his Bosnian hometown on leave from the war. What should have been a happy homecoming turns quickly tragic, however, when Marco attempts to defend a humble Muslim shopkeeper named Haris from three menacing soldiers, and pays the ultimate price for being a hero. A little more than a decade later the war has ended. Marco's father is restoring a run-down church when he is approached by Bogdan, who is desperate to find work. When Marco realizes that Bogdan's father was one of Marco's killers, he faces a difficult dilemma. Concurrently, prominent surgeon Nabobs is presented with a patient in Belgrade who turns out to be one of Marco's killers. An old friend of Marco's, Nabobs wrestles\nwith his conscience after initially refusing to perform a life-saving operation on the man. Later, in Germany, Marco's widow tracks down Haris in Germany, and pleads with him to provide her sanctuary in her most desperate hour.\n\n\n***********************\n\n- Duration : 1h 47mn\n\n- Bit rate : 1600 Kbps\n\n- Res: 720 x 384\n\n- AR: 1.85:1\n\n- FPS: 25.000 fps\n\n- Audio: AC3, 128kbps\n\n************************\n\n\nGeneral\n-------------\nFormat : AVI\nFormat/Info : Audio Video Interleave\nFile size : 1.31 GiB\nDuration : 1h 47mn\nOverall bit rate : 1738 Kbps\nWriting library : VirtualDub build 35491\n\n\nVideo\n-------------\nFormat : MPEG-4 Visual\nFormat profile : Advanced Simple@L5\nFormat settings, BVOP : 2\nFormat settings, QPel : No\nFormat settings, GMC : No warppoints\nFormat settings, Matrix : Default (MPEG)\nCodec ID : XVID\nCodec ID/Hint : XviD\nDuration : 1h 47mn\nBit rate : 1600 Kbps\nWidth : 720 pixels\nHeight : 384 pixels\nDisplay aspect ratio : 1.85:1\nFrame rate : 25.000 fps\nColor space : YUV\nChroma subsampling : 4:2:0\nBit depth : 8 bits\nScan type : Progressive\nCompression mode : Lossy\nBits/(Pixel*Frame) : 0.231\nStream size : 1.20 GiB (92%)\nWriting library : XviD 64\n\n\nAudio\n-------------\nFormat : AC-3\nFormat/Info : Audio Coding 3\nMode extension : CM (complete main)\nFormat settings, Endianness : Big\nCodec ID : 2000\nDuration : 1h 47mn\nBit rate mode : Constant\nBit rate : 128 Kbps\nChannel(s) : 2 channels\nChannel positions : Front: L R\nSampling rate : 48.0 KHz\nBit depth : 16 bits\nCompression mode : Lossy\nStream size : 98.6 MiB (7%)\nAlignment : Aligned on interleaves\nInterleave, duration : 40 ms (1.00 video frame)\nInterleave, preload duration : 512 ms","torrent":{"xt":"urn:btih:2e3de2172fbd969b3bf862579226c460d0ce11b6","amp;dn":"Krugovi+%5BCircles%5D+2013+DVDRip+XviD+titler","amp;tr":["udp%3A%2F%2Ftracker.openbittorrent.com%3A80","udp%3A%2F%2Fopen.demonii.com%3A1337","udp%3A%2F%2Ftracker.coppersurfer.tk%3A6969","udp%3A%2F%2Fexodus.desync.com%3A6969"],"infoHash":"2e3de2172fbd969b3bf862579226c460d0ce11b6","infoHashBuffer":{"type":"Buffer","data":[46,61,226,23,47,189,150,155,59,248,98,87,146,38,196,96,208,206,17,182]},"announce":[],"urlList":[]}}